<?xml version="1.0" encoding="UTF-8" standalone="no"?>
<!-- Created with Inkscape (http://www.inkscape.org/) -->

<svg
   xmlns:dc="http://purl.org/dc/elements/1.1/"
   xmlns:cc="http://creativecommons.org/ns#"
   xmlns:rdf="http://www.w3.org/1999/02/22-rdf-syntax-ns#"
   xmlns:svg="http://www.w3.org/2000/svg"
   xmlns="http://www.w3.org/2000/svg"
   xmlns:sodipodi="http://sodipodi.sourceforge.net/DTD/sodipodi-0.dtd"
   xmlns:inkscape="http://www.inkscape.org/namespaces/inkscape"
   width="512"
   height="512"
   id="svg2"
   version="1.1"
   inkscape:version="0.48.2 r9819"
   sodipodi:docname="ic_launcher.svg">
  <defs
     id="defs4" />
  <sodipodi:namedview
     id="base"
     pagecolor="#c0c0c0"
     bordercolor="#666666"
     borderopacity="1.0"
     inkscape:pageopacity="1"
     inkscape:pageshadow="2"
     inkscape:zoom="1"
     inkscape:cx="340"
     inkscape:cy="244.12155"
     inkscape:document-units="px"
     inkscape:current-layer="layer1"
     showgrid="false"
     inkscape:window-width="970"
     inkscape:window-height="784"
     inkscape:window-x="134"
     inkscape:window-y="50"
     inkscape:window-maximized="0"
     inkscape:snap-bbox="true"
     inkscape:bbox-nodes="false"
     inkscape:snap-bbox-edge-midpoints="false"
     inkscape:bbox-paths="true"
     showguides="true"
     inkscape:guide-bbox="true"
     inkscape:snap-global="false" />
  <metadata
     id="metadata7">
    <rdf:RDF>
      <cc:Work
         rdf:about="">
        <dc:format>image/svg+xml</dc:format>
        <dc:type
           rdf:resource="http://purl.org/dc/dcmitype/StillImage" />
        <dc:title />
      </cc:Work>
    </rdf:RDF>
  </metadata>
  <g
     inkscape:label="Layer 1"
     inkscape:groupmode="layer"
     id="layer1"
     transform="translate(0,-540.36217)">
    <g
       id="g4110"
       transform="translate(-225.47306,6.1624367)"
       style="fill:#000000;fill-opacity:1;stroke:#000000;stroke-opacity:1">
      <path
         inkscape:connector-curvature="0"
         id="path3023-3"
         d="m 479.09375,548.875 c -27.05601,0.42429 -54.00873,7.94429 -77.15625,21.875 -29.49953,-4.68758 -59.00536,-9.33914 -88.46875,-14.25 10.15955,27.21822 20.64811,54.31167 30.96875,81.46875 -7.39059,18.61634 -9.65309,39.05041 -8.0625,59 97.0625,0 194.125,0 291.1875,0 1.75376,-20.40945 -0.75874,-41.25213 -8.5,-60.25 10.17122,-26.7339 20.45392,-53.42561 30.46875,-80.21875 -29.20789,4.83974 -58.45261,9.45232 -87.6875,14.125 -24.70903,-14.79339 -53.86028,-22.33537 -82.75,-21.75 z"
         style="fill:#000000;fill-opacity:1;stroke:#000000;stroke-width:8.00003815;stroke-linecap:butt;stroke-linejoin:miter;stroke-miterlimit:4;stroke-opacity:1;stroke-dashoffset:0" />
      <path
         inkscape:connector-curvature="0"
         id="rect3027-9"
         d="m 335.46875,689.0625 c 0,84.32292 0,168.64583 0,252.96875 14.79423,0.4338 30.12072,-0.6358 44.59375,0.4375 0.48173,22.10383 -3.61276,45.41865 4.625,66.53125 12.29975,24.1058 49.74076,30.8429 68.40625,10.5938 13.75517,-13.1527 14.80141,-33.855 13.09375,-51.81255 0,-8.57292 0,-17.14583 0,-25.71875 10.26483,0.1153 20.80211,-0.23712 30.90625,0.1875 0.39298,21.6663 -3.77585,44.8951 5.1875,65.2188 12.63221,23.0986 48.87271,29.3752 67.34375,9.9687 14.27336,-13.1291 15.26081,-34.2831 13.5625,-52.46875 0,-7.63542 0,-15.27083 0,-22.90625 14.78125,0 29.5625,0 44.34375,0 0,-85 0,-170 0,-255 -97.35417,0 -194.70833,0 -292.0625,0 l 0,1 0,1 z"
         style="fill:#000000;fill-opacity:1;stroke:#000000;stroke-width:8;stroke-linecap:butt;stroke-linejoin:miter;stroke-miterlimit:4;stroke-opacity:1;stroke-dasharray:none;stroke-dashoffset:0" />
      <path
         inkscape:connector-curvature="0"
         id="rect3029-0"
         d="m 296.5,686.96875 c -24.89491,-0.5013 -46.31636,24.74674 -41.65625,49.21875 0.9587,47.7765 -2.05749,95.75234 1.74965,143.39724 8.73627,28.39281 49.80172,38.28745 71.06285,17.85276 13.80718,-11.82309 15.47435,-31.71785 13.43701,-48.68725 -0.7509,-44.49574 2.20777,-89.22859 -1.84326,-133.56275 -5.76735,-17.70452 -24.57763,-28.87308 -42.75,-28.21875 z"
         style="fill:#000000;fill-opacity:1;stroke:#000000;stroke-width:8;stroke-miterlimit:4;stroke-opacity:1;stroke-dasharray:none" />
      <path
         inkscape:connector-curvature="0"
         id="rect3029-3-5"
         d="m 663.5,686.96875 c -25.32607,-0.55144 -46.67035,25.39464 -41.6729,50.21864 0.8852,47.44711 -1.99881,95.06968 1.69762,142.39913 9.00497,29.28368 52.21093,38.61747 72.85028,16.22598 12.82235,-12.53461 13.37249,-31.91546 11.67151,-48.68713 -0.66515,-43.9531 2.20857,-88.15201 -1.85901,-131.93787 -5.69228,-17.69035 -24.49662,-28.84647 -42.6875,-28.21875 z"
         style="fill:#000000;fill-opacity:1;stroke:#000000;stroke-width:8;stroke-miterlimit:4;stroke-opacity:1;stroke-dasharray:none" />
    </g>
    <g
       id="g4014"
       transform="translate(3.8146973e-6,-9.1718655)"
       style="stroke:none">
      <path
         transform="translate(0,540.36217)"
         id="path3023"
         d="m 256.5,37.78125 c -28.75234,0 -55.38318,8.360946 -77.0625,22.5625 L 109.625,49.15625 134.03125,113.0625 C 127.89386,126.92366 124.5,142.04582 124.5,157.90625 l 264,0 c 0,-16.32165 -3.58203,-31.87543 -10.0625,-46.0625 l 23.9375,-62.6875 -69.03125,11.0625 C 311.69876,46.091984 285.16915,37.78125 256.5,37.78125 z"
         style="fill:#ff0000;fill-opacity:1;stroke:none;stroke-width:8.00003814999999996;stroke-linecap:butt;stroke-linejoin:miter;stroke-miterlimit:4;stroke-opacity:1;stroke-dashoffset:0"
         inkscape:connector-curvature="0" />
      <path
         transform="translate(0,540.36217)"
         id="rect3027"
         d="m 123.96875,176 0,227 44.34375,0 0,60.40625 c 0,16.1644 13.02313,29.15625 29.1875,29.15625 16.16437,0 29.1875,-12.99185 29.1875,-29.15625 l 0,-60.40625 58.625,0 0,57.8125 c 0,16.1644 13.02313,29.1875 29.1875,29.1875 16.16437,0 29.1875,-13.0231 29.1875,-29.1875 l 0,-57.8125 44.34375,0 0,-227 -264.0625,0 z"
         style="fill:#a4c739;fill-opacity:1;stroke:none;stroke-width:8;stroke-linecap:butt;stroke-linejoin:miter;stroke-miterlimit:4;stroke-opacity:1;stroke-dasharray:none;stroke-dashoffset:0"
         inkscape:connector-curvature="0" />
      <rect
         ry="26.236914"
         rx="29.177563"
         y="716.36218"
         x="43.337311"
         height="193.14835"
         width="58.355125"
         id="rect3029"
         style="fill:#a4c739;fill-opacity:1;stroke:none;stroke-width:8;stroke-miterlimit:4;stroke-opacity:1;stroke-dasharray:none" />
      <rect
         ry="26.236914"
         rx="29.177563"
         y="716.36218"
         x="410.30756"
         height="193.14835"
         width="58.355125"
         id="rect3029-3"
         style="fill:#a4c739;fill-opacity:1;stroke:none;stroke-width:8;stroke-miterlimit:4;stroke-opacity:1;stroke-dasharray:none" />
    </g>
  </g>
</svg>
